# xmcd
#
# Track frame offsets:
#	150
#	16517
#	31191
#	51063
#	69865
#	90113
#	103917
#	120248
#	138719
#	156680
#	174602
#	193862
#	213575
#	234189
#
# Disc length: 3406 seconds
#
# Revision: 2
# Processed by: cddbd v1.5.2PL0 Copyright (c) Steve Scherf et al.
# Submitted via: Rip'N'TagIt 1.5.0.0 
#
DISCID=b20d4c0e
DTITLE=Sugababes - THREE
DYEAR=1900
DGENRE=blues
TTITLE0=Hole in the Head
TTITLE1=Whatever Makes You Happy
TTITLE2=Caught In a Moment
TTITLE3=SituationÂ's Heavy
TTITLE4=Million Different Ways
TTITLE5=Twisted
TTITLE6=We Could Have it all
TTITLE7=ConversationÂ's Over
TTITLE8=In The Middle
TTITLE9=Too Lost In You
TTITLE10=Nasty Gheto
TTITLE11=Buster
TTITLE12=Sometimes
TTITLE13=MAYA
EXTD=
EXTT0=
EXTT1=
EXTT2=
EXTT3=
EXTT4=
EXTT5=
EXTT6=
EXTT7=
EXTT8=
EXTT9=
EXTT10=
EXTT11=
EXTT12=
EXTT13=
PLAYORDER=
